Coordinates
version=1
nRows=8
nColumns=40
inDegrees=yes

Units are S.I. units (second, meters, Newtons, ...)
Angles are in degrees.

endheader
time	pelvis_tilt	pelvis_list	pelvis_rotation	pelvis_tx	pelvis_ty	pelvis_tz	hip_flexion_r	hip_adduction_r	hip_rotation_r	knee_angle_r	knee_angle_r_beta	ankle_angle_r	subtalar_angle_r	mtp_angle_r	hip_flexion_l	hip_adduction_l	hip_rotation_l	knee_angle_l	knee_angle_l_beta	ankle_angle_l	subtalar_angle_l	mtp_angle_l	lumbar_extension	lumbar_bending	lumbar_rotation	arm_flex_r	arm_add_r	arm_rot_r	elbow_flex_r	pro_sup_r	wrist_flex_r	wrist_dev_r	arm_flex_l	arm_add_l	arm_rot_l	elbow_flex_l	pro_sup_l	wrist_flex_l	wrist_dev_l
     18.93250000	     -4.18426996	     -4.52447733	     -2.10687174	      0.84089035	      0.93546709	      0.40687046	     32.90223954	     -3.81852454	     -5.86004550	     55.88203564	     55.88203564	      3.61074116	    -11.10877221	     -0.81866082	      9.26268459	     -2.88531577	     -6.21701369	     18.00636660	     18.00636660	     15.35691858	    -10.36486457	      2.87945752	     -9.23732053	      7.50784799	      3.28625439	     -3.30332903	    -11.58145466	     -8.29144581	     25.00462113	     46.76113861	      0.00000000	      0.00000000	     19.21625756	    -17.34488995	     -1.03535985	     61.75484749	     46.78553509	      0.00000000	      0.00000000
     18.94500000	     -4.26040229	     -4.60687813	     -2.18439372	      0.83999430	      0.93529779	      0.40671180	     33.28434592	     -3.63938207	     -6.28016860	     52.58205441	     52.58205441	      3.66973615	    -10.71260564	     -0.52663904	      8.70058154	     -2.94278421	     -6.29717840	     17.70016534	     17.70016534	     15.62270053	    -10.16920499	      2.74355437	     -9.12848378	      7.61416809	      2.96044631	     -4.67729931	    -11.44543614	     -8.32791861	     24.24181425	     46.78463272	      0.00000000	      0.00000000	     20.31747980	    -17.80587855	     -1.45660265	     62.84436505	     46.84251537	      0.00000000	      0.00000000
     18.95750000	     -4.05248302	     -4.64424425	     -2.35122903	      0.83936875	      0.93544369	      0.40667799	     33.12796683	     -3.41662882	     -6.59258195	     48.88198756	     48.88198756	      3.61735885	    -10.11952595	     -0.47847886	      7.74595307	     -2.97582277	     -6.63674566	     17.30950462	     17.30950462	     15.92745437	     -9.66703374	      2.47575852	     -9.42110816	      7.67177371	      3.20296076	     -6.07723660	    -11.44606288	     -8.46625710	     23.21034896	     46.83127672	      0.00000000	      0.00000000	     21.30346514	    -17.72090654	     -2.12324181	     65.08842212	     46.93821814	      0.00000000	      0.00000000
     18.97000000	     -4.18599689	     -4.71754695	     -2.37800525	      0.83861452	      0.93498114	      0.40676173	     33.17406391	     -3.23194186	     -7.21884025	     44.96940646	     44.96940646	      3.53721651	     -9.30862466	     -0.17058145	      7.25554144	     -3.06196647	     -6.81157285	     17.02345571	     17.02345571	     16.17371171	     -9.35926599	      2.28675376	     -9.24377624	      7.72283870	      2.84835982	     -7.36629649	    -11.32507403	     -8.57314641	     22.68583156	     46.85200038	      0.00000000	      0.00000000	     22.23477943	    -18.11535140	     -2.60854502	     66.27220345	     47.00075931	      0.00000000	      0.00000000
     18.98250000	     -4.31916972	     -4.68336541	     -2.45667253	      0.83792696	      0.93438086	      0.40696836	     33.10660754	     -3.06721856	     -7.70145115	     40.90909221	     40.90909221	      3.32050657	     -8.22355218	      0.28663974	      6.75410508	     -3.03905584	     -7.01546718	     16.74614119	     16.74614119	     16.44956243	     -9.03049278	      2.08360970	     -9.04173525	      7.64214023	      2.62962610	     -8.61096008	    -11.13235685	     -8.64614454	     22.28067579	     46.86399983	      0.00000000	      0.00000000	     23.29420775	    -18.51857877	     -3.05664449	     67.37044345	     47.05859802	      0.00000000	      0.00000000
     18.99500000	     -4.19830522	     -4.70268312	     -2.48490751	      0.83763167	      0.93409487	      0.40717846	     32.47953861	     -2.87122854	     -8.37370823	     36.58342407	     36.58342407	      3.08347593	     -6.63563854	      0.62268036	      5.90207372	     -3.08689226	     -7.35072474	     16.39175971	     16.39175971	     16.79445562	     -8.35151947	      1.76408548	     -9.14704059	      7.63052844	      2.62355440	     -9.94765827	    -11.16610153	     -8.81633278	     21.96256865	     46.88115998	      0.00000000	      0.00000000	     24.11415718	    -18.44741602	     -3.55318069	     68.93582094	     47.12742784	      0.00000000	      0.00000000
     19.00750000	     -4.18671690	     -4.62154500	     -2.50984105	      0.83745509	      0.93348086	      0.40752788	     31.88279543	     -2.72224332	     -9.01733150	     32.30072689	     32.30072689	      2.72420214	     -4.89863421	      1.07785466	      5.17365180	     -3.04579321	     -7.74198687	     16.05384295	     16.05384295	     17.12371444	     -7.61934874	      1.41185313	     -9.07753062	      7.50713518	      2.52078888	    -11.16455293	    -11.08557916	     -9.00022191	     21.83835312	     46.89118974	      0.00000000	      0.00000000	     24.90173214	    -18.51141977	     -4.04786300	     70.31412262	     47.19257623	      0.00000000	      0.00000000
     19.02000000	     -4.10827699	     -4.46287403	     -2.51684552	      0.83748822	      0.93281047	      0.40802313	     31.11120022	     -2.62523368	     -9.70731999	     28.13272962	     28.13272962	      2.33206525	     -2.89908598	      1.60637035	      4.35585348	     -2.94532278	     -8.27192185	     15.70750532	     15.70750532	     17.46992678	     -6.68427937	      0.96823048	     -9.07804052	      7.26256148	      2.43915629	    -12.32442635	    -11.00456575	     -9.24543154	     21.90934889	     46.89815417	      0.00000000	      0.00000000	     25.61819834	    -18.56302736	     -4.58922561	     71.71098428	     47.26223710	      0.00000000	      0.00000000
